<mxfile host="app.diagrams.net" modified="2021-12-02T03:49:11.518Z" agent="5.0 (Windows NT 10.0; Win64; x64) AppleWebKit/537.36 (KHTML, like Gecko) Chrome/96.0.4664.45 Safari/537.36" etag="Wg53R-0LA89N7p8_4uqs" version="15.8.8" type="github">
  <diagram id="iREnr2Feo6eBo5T5eVt-" name="Page-1">
    <mxGraphModel dx="2907" dy="1048" grid="0" gridSize="10" guides="1" tooltips="1" connect="1" arrows="1" fold="1" page="0" pageScale="1" pageWidth="850" pageHeight="1100" math="0" shadow="0">
      <root>
        <mxCell id="0" />
        <mxCell id="1" parent="0" />
        <mxCell id="FUgHKyWx6sdROd2DMv94-9" style="edgeStyle=none;curved=1;rounded=0;sketch=1;hachureGap=4;orthogonalLoop=1;jettySize=auto;html=1;exitX=0.5;exitY=1;exitDx=0;exitDy=0;entryX=0.5;entryY=0;entryDx=0;entryDy=0;fontFamily=Architects Daughter;fontSource=https%3A%2F%2Ffonts.googleapis.com%2Fcss%3Ffamily%3DArchitects%2BDaughter;fontSize=16;endArrow=open;startSize=14;endSize=14;targetPerimeterSpacing=8;startArrow=none;" edge="1" parent="1" source="FUgHKyWx6sdROd2DMv94-51" target="FUgHKyWx6sdROd2DMv94-2">
          <mxGeometry relative="1" as="geometry" />
        </mxCell>
        <mxCell id="FUgHKyWx6sdROd2DMv94-10" style="edgeStyle=none;curved=1;rounded=0;sketch=1;hachureGap=4;orthogonalLoop=1;jettySize=auto;html=1;exitX=0.5;exitY=1;exitDx=0;exitDy=0;entryX=0.5;entryY=0;entryDx=0;entryDy=0;fontFamily=Architects Daughter;fontSource=https%3A%2F%2Ffonts.googleapis.com%2Fcss%3Ffamily%3DArchitects%2BDaughter;fontSize=16;endArrow=open;startSize=14;endSize=14;targetPerimeterSpacing=8;startArrow=none;" edge="1" parent="1" source="FUgHKyWx6sdROd2DMv94-85" target="FUgHKyWx6sdROd2DMv94-3">
          <mxGeometry relative="1" as="geometry" />
        </mxCell>
        <mxCell id="FUgHKyWx6sdROd2DMv94-1" value="can it fly?" style="rounded=0;whiteSpace=wrap;html=1;sketch=1;hachureGap=4;fontFamily=Architects Daughter;fontSource=https%3A%2F%2Ffonts.googleapis.com%2Fcss%3Ffamily%3DArchitects%2BDaughter;fontSize=20;" vertex="1" parent="1">
          <mxGeometry x="120" y="2" width="160" height="80" as="geometry" />
        </mxCell>
        <mxCell id="FUgHKyWx6sdROd2DMv94-24" style="edgeStyle=none;curved=1;rounded=0;sketch=1;hachureGap=4;orthogonalLoop=1;jettySize=auto;html=1;exitX=0.5;exitY=1;exitDx=0;exitDy=0;fontFamily=Architects Daughter;fontSource=https%3A%2F%2Ffonts.googleapis.com%2Fcss%3Ffamily%3DArchitects%2BDaughter;fontSize=16;endArrow=open;startSize=14;endSize=14;targetPerimeterSpacing=8;startArrow=none;" edge="1" parent="1" source="FUgHKyWx6sdROd2DMv94-52" target="FUgHKyWx6sdROd2DMv94-23">
          <mxGeometry relative="1" as="geometry" />
        </mxCell>
        <mxCell id="FUgHKyWx6sdROd2DMv94-30" style="edgeStyle=none;curved=1;rounded=0;sketch=1;hachureGap=4;orthogonalLoop=1;jettySize=auto;html=1;exitX=0.5;exitY=1;exitDx=0;exitDy=0;fontFamily=Architects Daughter;fontSource=https%3A%2F%2Ffonts.googleapis.com%2Fcss%3Ffamily%3DArchitects%2BDaughter;fontSize=16;endArrow=open;startSize=14;endSize=14;targetPerimeterSpacing=8;startArrow=none;" edge="1" parent="1" source="FUgHKyWx6sdROd2DMv94-95" target="FUgHKyWx6sdROd2DMv94-29">
          <mxGeometry relative="1" as="geometry" />
        </mxCell>
        <mxCell id="FUgHKyWx6sdROd2DMv94-2" value="does it go on land?" style="rounded=0;whiteSpace=wrap;html=1;sketch=1;hachureGap=4;fontFamily=Architects Daughter;fontSource=https%3A%2F%2Ffonts.googleapis.com%2Fcss%3Ffamily%3DArchitects%2BDaughter;fontSize=20;" vertex="1" parent="1">
          <mxGeometry x="609" y="165" width="160" height="80" as="geometry" />
        </mxCell>
        <mxCell id="FUgHKyWx6sdROd2DMv94-12" style="edgeStyle=none;curved=1;rounded=0;sketch=1;hachureGap=4;orthogonalLoop=1;jettySize=auto;html=1;exitX=0.5;exitY=1;exitDx=0;exitDy=0;fontFamily=Architects Daughter;fontSource=https%3A%2F%2Ffonts.googleapis.com%2Fcss%3Ffamily%3DArchitects%2BDaughter;fontSize=16;endArrow=open;startSize=14;endSize=14;targetPerimeterSpacing=8;startArrow=none;" edge="1" parent="1" source="FUgHKyWx6sdROd2DMv94-78" target="FUgHKyWx6sdROd2DMv94-11">
          <mxGeometry relative="1" as="geometry" />
        </mxCell>
        <mxCell id="FUgHKyWx6sdROd2DMv94-18" style="edgeStyle=none;curved=1;rounded=0;sketch=1;hachureGap=4;orthogonalLoop=1;jettySize=auto;html=1;exitX=0.5;exitY=1;exitDx=0;exitDy=0;fontFamily=Architects Daughter;fontSource=https%3A%2F%2Ffonts.googleapis.com%2Fcss%3Ffamily%3DArchitects%2BDaughter;fontSize=16;endArrow=open;startSize=14;endSize=14;targetPerimeterSpacing=8;startArrow=none;" edge="1" parent="1" source="FUgHKyWx6sdROd2DMv94-88" target="FUgHKyWx6sdROd2DMv94-17">
          <mxGeometry relative="1" as="geometry" />
        </mxCell>
        <mxCell id="FUgHKyWx6sdROd2DMv94-3" value="does it have wings?" style="rounded=0;whiteSpace=wrap;html=1;sketch=1;hachureGap=4;fontFamily=Architects Daughter;fontSource=https%3A%2F%2Ffonts.googleapis.com%2Fcss%3Ffamily%3DArchitects%2BDaughter;fontSize=20;" vertex="1" parent="1">
          <mxGeometry x="-284" y="140" width="160" height="80" as="geometry" />
        </mxCell>
        <mxCell id="FUgHKyWx6sdROd2DMv94-14" style="edgeStyle=none;curved=1;rounded=0;sketch=1;hachureGap=4;orthogonalLoop=1;jettySize=auto;html=1;exitX=0.5;exitY=1;exitDx=0;exitDy=0;fontFamily=Architects Daughter;fontSource=https%3A%2F%2Ffonts.googleapis.com%2Fcss%3Ffamily%3DArchitects%2BDaughter;fontSize=16;endArrow=open;startSize=14;endSize=14;targetPerimeterSpacing=8;startArrow=none;" edge="1" parent="1" source="FUgHKyWx6sdROd2DMv94-86" target="FUgHKyWx6sdROd2DMv94-13">
          <mxGeometry relative="1" as="geometry" />
        </mxCell>
        <mxCell id="FUgHKyWx6sdROd2DMv94-16" style="edgeStyle=none;curved=1;rounded=0;sketch=1;hachureGap=4;orthogonalLoop=1;jettySize=auto;html=1;exitX=0.5;exitY=1;exitDx=0;exitDy=0;fontFamily=Architects Daughter;fontSource=https%3A%2F%2Ffonts.googleapis.com%2Fcss%3Ffamily%3DArchitects%2BDaughter;fontSize=16;endArrow=open;startSize=14;endSize=14;targetPerimeterSpacing=8;startArrow=none;" edge="1" parent="1" source="FUgHKyWx6sdROd2DMv94-80" target="FUgHKyWx6sdROd2DMv94-15">
          <mxGeometry relative="1" as="geometry" />
        </mxCell>
        <mxCell id="FUgHKyWx6sdROd2DMv94-11" value="does it use hot air?" style="rounded=0;whiteSpace=wrap;html=1;sketch=1;hachureGap=4;fontFamily=Architects Daughter;fontSource=https%3A%2F%2Ffonts.googleapis.com%2Fcss%3Ffamily%3DArchitects%2BDaughter;fontSize=20;" vertex="1" parent="1">
          <mxGeometry x="-119" y="307" width="160" height="80" as="geometry" />
        </mxCell>
        <mxCell id="FUgHKyWx6sdROd2DMv94-13" value="Hot air balloon" style="rounded=0;whiteSpace=wrap;html=1;sketch=1;hachureGap=4;fontFamily=Architects Daughter;fontSource=https%3A%2F%2Ffonts.googleapis.com%2Fcss%3Ffamily%3DArchitects%2BDaughter;fontSize=20;" vertex="1" parent="1">
          <mxGeometry x="-201" y="513" width="160" height="80" as="geometry" />
        </mxCell>
        <mxCell id="FUgHKyWx6sdROd2DMv94-15" value="helicopter" style="rounded=0;whiteSpace=wrap;html=1;sketch=1;hachureGap=4;fontFamily=Architects Daughter;fontSource=https%3A%2F%2Ffonts.googleapis.com%2Fcss%3Ffamily%3DArchitects%2BDaughter;fontSize=20;" vertex="1" parent="1">
          <mxGeometry x="-4" y="513" width="160" height="80" as="geometry" />
        </mxCell>
        <mxCell id="FUgHKyWx6sdROd2DMv94-20" style="edgeStyle=none;curved=1;rounded=0;sketch=1;hachureGap=4;orthogonalLoop=1;jettySize=auto;html=1;exitX=0.5;exitY=1;exitDx=0;exitDy=0;fontFamily=Architects Daughter;fontSource=https%3A%2F%2Ffonts.googleapis.com%2Fcss%3Ffamily%3DArchitects%2BDaughter;fontSize=16;endArrow=open;startSize=14;endSize=14;targetPerimeterSpacing=8;startArrow=none;" edge="1" parent="1" source="FUgHKyWx6sdROd2DMv94-62" target="FUgHKyWx6sdROd2DMv94-19">
          <mxGeometry relative="1" as="geometry" />
        </mxCell>
        <mxCell id="FUgHKyWx6sdROd2DMv94-22" style="edgeStyle=none;curved=1;rounded=0;sketch=1;hachureGap=4;orthogonalLoop=1;jettySize=auto;html=1;exitX=0.5;exitY=1;exitDx=0;exitDy=0;fontFamily=Architects Daughter;fontSource=https%3A%2F%2Ffonts.googleapis.com%2Fcss%3Ffamily%3DArchitects%2BDaughter;fontSize=16;endArrow=open;startSize=14;endSize=14;targetPerimeterSpacing=8;startArrow=none;" edge="1" parent="1" source="FUgHKyWx6sdROd2DMv94-83" target="FUgHKyWx6sdROd2DMv94-21">
          <mxGeometry relative="1" as="geometry" />
        </mxCell>
        <mxCell id="FUgHKyWx6sdROd2DMv94-17" value="privately owned?" style="rounded=0;whiteSpace=wrap;html=1;sketch=1;hachureGap=4;fontFamily=Architects Daughter;fontSource=https%3A%2F%2Ffonts.googleapis.com%2Fcss%3Ffamily%3DArchitects%2BDaughter;fontSize=20;" vertex="1" parent="1">
          <mxGeometry x="-483" y="307" width="160" height="80" as="geometry" />
        </mxCell>
        <mxCell id="FUgHKyWx6sdROd2DMv94-19" value="commercial airline" style="rounded=0;whiteSpace=wrap;html=1;sketch=1;hachureGap=4;fontFamily=Architects Daughter;fontSource=https%3A%2F%2Ffonts.googleapis.com%2Fcss%3Ffamily%3DArchitects%2BDaughter;fontSize=20;" vertex="1" parent="1">
          <mxGeometry x="-413" y="509" width="160" height="80" as="geometry" />
        </mxCell>
        <mxCell id="FUgHKyWx6sdROd2DMv94-21" value="Private jet" style="rounded=0;whiteSpace=wrap;html=1;sketch=1;hachureGap=4;fontFamily=Architects Daughter;fontSource=https%3A%2F%2Ffonts.googleapis.com%2Fcss%3Ffamily%3DArchitects%2BDaughter;fontSize=20;" vertex="1" parent="1">
          <mxGeometry x="-612" y="509" width="160" height="80" as="geometry" />
        </mxCell>
        <mxCell id="FUgHKyWx6sdROd2DMv94-26" style="edgeStyle=none;curved=1;rounded=0;sketch=1;hachureGap=4;orthogonalLoop=1;jettySize=auto;html=1;exitX=0.5;exitY=1;exitDx=0;exitDy=0;fontFamily=Architects Daughter;fontSource=https%3A%2F%2Ffonts.googleapis.com%2Fcss%3Ffamily%3DArchitects%2BDaughter;fontSize=16;endArrow=open;startSize=14;endSize=14;targetPerimeterSpacing=8;startArrow=none;" edge="1" parent="1" source="FUgHKyWx6sdROd2DMv94-53" target="FUgHKyWx6sdROd2DMv94-25">
          <mxGeometry relative="1" as="geometry" />
        </mxCell>
        <mxCell id="FUgHKyWx6sdROd2DMv94-28" style="edgeStyle=none;curved=1;rounded=0;sketch=1;hachureGap=4;orthogonalLoop=1;jettySize=auto;html=1;exitX=0.5;exitY=1;exitDx=0;exitDy=0;fontFamily=Architects Daughter;fontSource=https%3A%2F%2Ffonts.googleapis.com%2Fcss%3Ffamily%3DArchitects%2BDaughter;fontSize=16;endArrow=open;startSize=14;endSize=14;targetPerimeterSpacing=8;startArrow=none;" edge="1" parent="1" source="FUgHKyWx6sdROd2DMv94-49" target="FUgHKyWx6sdROd2DMv94-27">
          <mxGeometry relative="1" as="geometry" />
        </mxCell>
        <mxCell id="FUgHKyWx6sdROd2DMv94-23" value="does it go underwater" style="rounded=0;whiteSpace=wrap;html=1;sketch=1;hachureGap=4;fontFamily=Architects Daughter;fontSource=https%3A%2F%2Ffonts.googleapis.com%2Fcss%3Ffamily%3DArchitects%2BDaughter;fontSize=20;" vertex="1" parent="1">
          <mxGeometry x="877" y="297" width="160" height="80" as="geometry" />
        </mxCell>
        <mxCell id="FUgHKyWx6sdROd2DMv94-25" value="ship" style="rounded=0;whiteSpace=wrap;html=1;sketch=1;hachureGap=4;fontFamily=Architects Daughter;fontSource=https%3A%2F%2Ffonts.googleapis.com%2Fcss%3Ffamily%3DArchitects%2BDaughter;fontSize=20;" vertex="1" parent="1">
          <mxGeometry x="1037" y="513" width="160" height="80" as="geometry" />
        </mxCell>
        <mxCell id="FUgHKyWx6sdROd2DMv94-27" value="submarine" style="rounded=0;whiteSpace=wrap;html=1;sketch=1;hachureGap=4;fontFamily=Architects Daughter;fontSource=https%3A%2F%2Ffonts.googleapis.com%2Fcss%3Ffamily%3DArchitects%2BDaughter;fontSize=20;" vertex="1" parent="1">
          <mxGeometry x="778" y="513" width="160" height="80" as="geometry" />
        </mxCell>
        <mxCell id="FUgHKyWx6sdROd2DMv94-32" style="edgeStyle=none;curved=1;rounded=0;sketch=1;hachureGap=4;orthogonalLoop=1;jettySize=auto;html=1;exitX=0.5;exitY=1;exitDx=0;exitDy=0;fontFamily=Architects Daughter;fontSource=https%3A%2F%2Ffonts.googleapis.com%2Fcss%3Ffamily%3DArchitects%2BDaughter;fontSize=16;endArrow=open;startSize=14;endSize=14;targetPerimeterSpacing=8;startArrow=none;" edge="1" parent="1" source="FUgHKyWx6sdROd2DMv94-97" target="FUgHKyWx6sdROd2DMv94-31">
          <mxGeometry relative="1" as="geometry" />
        </mxCell>
        <mxCell id="FUgHKyWx6sdROd2DMv94-38" style="edgeStyle=none;curved=1;rounded=0;sketch=1;hachureGap=4;orthogonalLoop=1;jettySize=auto;html=1;exitX=0.5;exitY=1;exitDx=0;exitDy=0;fontFamily=Architects Daughter;fontSource=https%3A%2F%2Ffonts.googleapis.com%2Fcss%3Ffamily%3DArchitects%2BDaughter;fontSize=16;endArrow=open;startSize=14;endSize=14;targetPerimeterSpacing=8;startArrow=none;" edge="1" parent="1" source="FUgHKyWx6sdROd2DMv94-50" target="FUgHKyWx6sdROd2DMv94-37">
          <mxGeometry relative="1" as="geometry" />
        </mxCell>
        <mxCell id="FUgHKyWx6sdROd2DMv94-29" value="does it go on tracks?" style="rounded=0;whiteSpace=wrap;html=1;sketch=1;hachureGap=4;fontFamily=Architects Daughter;fontSource=https%3A%2F%2Ffonts.googleapis.com%2Fcss%3Ffamily%3DArchitects%2BDaughter;fontSize=20;" vertex="1" parent="1">
          <mxGeometry x="369" y="307" width="160" height="80" as="geometry" />
        </mxCell>
        <mxCell id="FUgHKyWx6sdROd2DMv94-34" style="edgeStyle=none;curved=1;rounded=0;sketch=1;hachureGap=4;orthogonalLoop=1;jettySize=auto;html=1;exitX=0.5;exitY=1;exitDx=0;exitDy=0;fontFamily=Architects Daughter;fontSource=https%3A%2F%2Ffonts.googleapis.com%2Fcss%3Ffamily%3DArchitects%2BDaughter;fontSize=16;endArrow=open;startSize=14;endSize=14;targetPerimeterSpacing=8;startArrow=none;" edge="1" parent="1" source="FUgHKyWx6sdROd2DMv94-87" target="FUgHKyWx6sdROd2DMv94-33">
          <mxGeometry relative="1" as="geometry" />
        </mxCell>
        <mxCell id="FUgHKyWx6sdROd2DMv94-36" style="edgeStyle=none;curved=1;rounded=0;sketch=1;hachureGap=4;orthogonalLoop=1;jettySize=auto;html=1;exitX=0.5;exitY=1;exitDx=0;exitDy=0;fontFamily=Architects Daughter;fontSource=https%3A%2F%2Ffonts.googleapis.com%2Fcss%3Ffamily%3DArchitects%2BDaughter;fontSize=16;endArrow=open;startSize=14;endSize=14;targetPerimeterSpacing=8;startArrow=none;" edge="1" parent="1" source="FUgHKyWx6sdROd2DMv94-54" target="FUgHKyWx6sdROd2DMv94-35">
          <mxGeometry relative="1" as="geometry" />
        </mxCell>
        <mxCell id="FUgHKyWx6sdROd2DMv94-31" value="underground?" style="rounded=0;whiteSpace=wrap;html=1;sketch=1;hachureGap=4;fontFamily=Architects Daughter;fontSource=https%3A%2F%2Ffonts.googleapis.com%2Fcss%3Ffamily%3DArchitects%2BDaughter;fontSize=20;" vertex="1" parent="1">
          <mxGeometry x="241" y="513" width="160" height="80" as="geometry" />
        </mxCell>
        <mxCell id="FUgHKyWx6sdROd2DMv94-33" value="subway" style="rounded=0;whiteSpace=wrap;html=1;sketch=1;hachureGap=4;fontFamily=Architects Daughter;fontSource=https%3A%2F%2Ffonts.googleapis.com%2Fcss%3Ffamily%3DArchitects%2BDaughter;fontSize=20;" vertex="1" parent="1">
          <mxGeometry x="128" y="704" width="160" height="80" as="geometry" />
        </mxCell>
        <mxCell id="FUgHKyWx6sdROd2DMv94-35" value="train" style="rounded=0;whiteSpace=wrap;html=1;sketch=1;hachureGap=4;fontFamily=Architects Daughter;fontSource=https%3A%2F%2Ffonts.googleapis.com%2Fcss%3Ffamily%3DArchitects%2BDaughter;fontSize=20;" vertex="1" parent="1">
          <mxGeometry x="350" y="704" width="160" height="80" as="geometry" />
        </mxCell>
        <mxCell id="FUgHKyWx6sdROd2DMv94-40" style="edgeStyle=none;curved=1;rounded=0;sketch=1;hachureGap=4;orthogonalLoop=1;jettySize=auto;html=1;exitX=0.5;exitY=1;exitDx=0;exitDy=0;fontFamily=Architects Daughter;fontSource=https%3A%2F%2Ffonts.googleapis.com%2Fcss%3Ffamily%3DArchitects%2BDaughter;fontSize=16;endArrow=open;startSize=14;endSize=14;targetPerimeterSpacing=8;startArrow=none;" edge="1" parent="1" source="FUgHKyWx6sdROd2DMv94-99" target="FUgHKyWx6sdROd2DMv94-39">
          <mxGeometry relative="1" as="geometry" />
        </mxCell>
        <mxCell id="FUgHKyWx6sdROd2DMv94-42" style="edgeStyle=none;curved=1;rounded=0;sketch=1;hachureGap=4;orthogonalLoop=1;jettySize=auto;html=1;exitX=0.5;exitY=1;exitDx=0;exitDy=0;fontFamily=Architects Daughter;fontSource=https%3A%2F%2Ffonts.googleapis.com%2Fcss%3Ffamily%3DArchitects%2BDaughter;fontSize=16;endArrow=open;startSize=14;endSize=14;targetPerimeterSpacing=8;startArrow=none;" edge="1" parent="1" source="FUgHKyWx6sdROd2DMv94-61" target="FUgHKyWx6sdROd2DMv94-41">
          <mxGeometry relative="1" as="geometry" />
        </mxCell>
        <mxCell id="FUgHKyWx6sdROd2DMv94-37" value="four wheels" style="rounded=0;whiteSpace=wrap;html=1;sketch=1;hachureGap=4;fontFamily=Architects Daughter;fontSource=https%3A%2F%2Ffonts.googleapis.com%2Fcss%3Ffamily%3DArchitects%2BDaughter;fontSize=20;" vertex="1" parent="1">
          <mxGeometry x="597" y="513" width="160" height="80" as="geometry" />
        </mxCell>
        <mxCell id="FUgHKyWx6sdROd2DMv94-39" value="car" style="rounded=0;whiteSpace=wrap;html=1;sketch=1;hachureGap=4;fontFamily=Architects Daughter;fontSource=https%3A%2F%2Ffonts.googleapis.com%2Fcss%3Ffamily%3DArchitects%2BDaughter;fontSize=20;" vertex="1" parent="1">
          <mxGeometry x="515" y="704" width="160" height="80" as="geometry" />
        </mxCell>
        <mxCell id="FUgHKyWx6sdROd2DMv94-41" value="bicycle" style="rounded=0;whiteSpace=wrap;html=1;sketch=1;hachureGap=4;fontFamily=Architects Daughter;fontSource=https%3A%2F%2Ffonts.googleapis.com%2Fcss%3Ffamily%3DArchitects%2BDaughter;fontSize=20;" vertex="1" parent="1">
          <mxGeometry x="720" y="704" width="160" height="80" as="geometry" />
        </mxCell>
        <mxCell id="FUgHKyWx6sdROd2DMv94-51" value="no" style="text;strokeColor=none;fillColor=none;html=1;align=center;verticalAlign=middle;whiteSpace=wrap;rounded=0;sketch=1;hachureGap=4;fontFamily=Architects Daughter;fontSource=https://fonts.googleapis.com/css?family=Architects+Daughter;fontSize=20;" vertex="1" parent="1">
          <mxGeometry x="382" y="98" width="60" height="30" as="geometry" />
        </mxCell>
        <mxCell id="FUgHKyWx6sdROd2DMv94-55" value="" style="edgeStyle=none;curved=1;rounded=0;sketch=1;hachureGap=4;orthogonalLoop=1;jettySize=auto;html=1;exitX=0.5;exitY=1;exitDx=0;exitDy=0;entryX=0.5;entryY=0;entryDx=0;entryDy=0;fontFamily=Architects Daughter;fontSource=https%3A%2F%2Ffonts.googleapis.com%2Fcss%3Ffamily%3DArchitects%2BDaughter;fontSize=16;endArrow=none;startSize=14;endSize=14;sourcePerimeterSpacing=8;" edge="1" parent="1" source="FUgHKyWx6sdROd2DMv94-1" target="FUgHKyWx6sdROd2DMv94-51">
          <mxGeometry relative="1" as="geometry">
            <mxPoint x="200" y="300" as="sourcePoint" />
            <mxPoint x="-234" y="342" as="targetPoint" />
          </mxGeometry>
        </mxCell>
        <mxCell id="FUgHKyWx6sdROd2DMv94-52" value="no" style="text;strokeColor=none;fillColor=none;html=1;align=center;verticalAlign=middle;whiteSpace=wrap;rounded=0;sketch=1;hachureGap=4;fontFamily=Architects Daughter;fontSource=https://fonts.googleapis.com/css?family=Architects+Daughter;fontSize=20;" vertex="1" parent="1">
          <mxGeometry x="755" y="261" width="60" height="30" as="geometry" />
        </mxCell>
        <mxCell id="FUgHKyWx6sdROd2DMv94-56" value="" style="edgeStyle=none;curved=1;rounded=0;sketch=1;hachureGap=4;orthogonalLoop=1;jettySize=auto;html=1;exitX=0.5;exitY=1;exitDx=0;exitDy=0;fontFamily=Architects Daughter;fontSource=https%3A%2F%2Ffonts.googleapis.com%2Fcss%3Ffamily%3DArchitects%2BDaughter;fontSize=16;endArrow=none;startSize=14;endSize=14;sourcePerimeterSpacing=8;" edge="1" parent="1" source="FUgHKyWx6sdROd2DMv94-2" target="FUgHKyWx6sdROd2DMv94-52">
          <mxGeometry relative="1" as="geometry">
            <mxPoint x="676" y="434" as="sourcePoint" />
            <mxPoint x="538" y="485.29203539823015" as="targetPoint" />
          </mxGeometry>
        </mxCell>
        <mxCell id="FUgHKyWx6sdROd2DMv94-53" value="no" style="text;strokeColor=none;fillColor=none;html=1;align=center;verticalAlign=middle;whiteSpace=wrap;rounded=0;sketch=1;hachureGap=4;fontFamily=Architects Daughter;fontSource=https://fonts.googleapis.com/css?family=Architects+Daughter;fontSize=20;" vertex="1" parent="1">
          <mxGeometry x="989" y="417" width="60" height="30" as="geometry" />
        </mxCell>
        <mxCell id="FUgHKyWx6sdROd2DMv94-59" value="" style="edgeStyle=none;curved=1;rounded=0;sketch=1;hachureGap=4;orthogonalLoop=1;jettySize=auto;html=1;exitX=0.5;exitY=1;exitDx=0;exitDy=0;fontFamily=Architects Daughter;fontSource=https%3A%2F%2Ffonts.googleapis.com%2Fcss%3Ffamily%3DArchitects%2BDaughter;fontSize=16;endArrow=none;startSize=14;endSize=14;sourcePerimeterSpacing=8;" edge="1" parent="1" source="FUgHKyWx6sdROd2DMv94-23" target="FUgHKyWx6sdROd2DMv94-53">
          <mxGeometry relative="1" as="geometry">
            <mxPoint x="1398" y="153" as="sourcePoint" />
            <mxPoint x="1355.3411764705884" y="190" as="targetPoint" />
          </mxGeometry>
        </mxCell>
        <mxCell id="FUgHKyWx6sdROd2DMv94-50" value="no" style="text;strokeColor=none;fillColor=none;html=1;align=center;verticalAlign=middle;whiteSpace=wrap;rounded=0;sketch=1;hachureGap=4;fontFamily=Architects Daughter;fontSource=https%3A%2F%2Ffonts.googleapis.com%2Fcss%3Ffamily%3DArchitects%2BDaughter;fontSize=20;" vertex="1" parent="1">
          <mxGeometry x="504" y="425" width="60" height="30" as="geometry" />
        </mxCell>
        <mxCell id="FUgHKyWx6sdROd2DMv94-60" value="" style="edgeStyle=none;curved=1;rounded=0;sketch=1;hachureGap=4;orthogonalLoop=1;jettySize=auto;html=1;exitX=0.5;exitY=1;exitDx=0;exitDy=0;fontFamily=Architects Daughter;fontSource=https%3A%2F%2Ffonts.googleapis.com%2Fcss%3Ffamily%3DArchitects%2BDaughter;fontSize=16;endArrow=none;startSize=14;endSize=14;sourcePerimeterSpacing=8;" edge="1" parent="1" source="FUgHKyWx6sdROd2DMv94-29" target="FUgHKyWx6sdROd2DMv94-50">
          <mxGeometry relative="1" as="geometry">
            <mxPoint x="491" y="462" as="sourcePoint" />
            <mxPoint x="438.4186046511627" y="500" as="targetPoint" />
          </mxGeometry>
        </mxCell>
        <mxCell id="FUgHKyWx6sdROd2DMv94-61" value="no" style="text;strokeColor=none;fillColor=none;html=1;align=center;verticalAlign=middle;whiteSpace=wrap;rounded=0;sketch=1;hachureGap=4;fontFamily=Architects Daughter;fontSource=https://fonts.googleapis.com/css?family=Architects+Daughter;fontSize=20;" vertex="1" parent="1">
          <mxGeometry x="701" y="629" width="60" height="30" as="geometry" />
        </mxCell>
        <mxCell id="FUgHKyWx6sdROd2DMv94-63" value="" style="edgeStyle=none;curved=1;rounded=0;sketch=1;hachureGap=4;orthogonalLoop=1;jettySize=auto;html=1;exitX=0.5;exitY=1;exitDx=0;exitDy=0;fontFamily=Architects Daughter;fontSource=https%3A%2F%2Ffonts.googleapis.com%2Fcss%3Ffamily%3DArchitects%2BDaughter;fontSize=16;endArrow=none;startSize=14;endSize=14;sourcePerimeterSpacing=8;" edge="1" parent="1" source="FUgHKyWx6sdROd2DMv94-37" target="FUgHKyWx6sdROd2DMv94-61">
          <mxGeometry relative="1" as="geometry">
            <mxPoint x="372" y="588" as="sourcePoint" />
            <mxPoint x="402.55944055944065" y="683" as="targetPoint" />
          </mxGeometry>
        </mxCell>
        <mxCell id="FUgHKyWx6sdROd2DMv94-54" value="no" style="text;strokeColor=none;fillColor=none;html=1;align=center;verticalAlign=middle;whiteSpace=wrap;rounded=0;sketch=1;hachureGap=4;fontFamily=Architects Daughter;fontSource=https://fonts.googleapis.com/css?family=Architects+Daughter;fontSize=20;" vertex="1" parent="1">
          <mxGeometry x="329" y="620" width="60" height="30" as="geometry" />
        </mxCell>
        <mxCell id="FUgHKyWx6sdROd2DMv94-66" value="" style="edgeStyle=none;curved=1;rounded=0;sketch=1;hachureGap=4;orthogonalLoop=1;jettySize=auto;html=1;exitX=0.5;exitY=1;exitDx=0;exitDy=0;fontFamily=Architects Daughter;fontSource=https%3A%2F%2Ffonts.googleapis.com%2Fcss%3Ffamily%3DArchitects%2BDaughter;fontSize=16;endArrow=none;startSize=14;endSize=14;sourcePerimeterSpacing=8;" edge="1" parent="1" source="FUgHKyWx6sdROd2DMv94-31" target="FUgHKyWx6sdROd2DMv94-54">
          <mxGeometry relative="1" as="geometry">
            <mxPoint x="1149" y="337.5" as="sourcePoint" />
            <mxPoint x="1135.3170731707319" y="371.5" as="targetPoint" />
          </mxGeometry>
        </mxCell>
        <mxCell id="FUgHKyWx6sdROd2DMv94-78" value="no" style="text;strokeColor=none;fillColor=none;html=1;align=center;verticalAlign=middle;whiteSpace=wrap;rounded=0;sketch=1;hachureGap=4;fontFamily=Architects Daughter;fontSource=https://fonts.googleapis.com/css?family=Architects+Daughter;fontSize=20;" vertex="1" parent="1">
          <mxGeometry x="-182" y="240" width="60" height="30" as="geometry" />
        </mxCell>
        <mxCell id="FUgHKyWx6sdROd2DMv94-79" value="" style="edgeStyle=none;curved=1;rounded=0;sketch=1;hachureGap=4;orthogonalLoop=1;jettySize=auto;html=1;exitX=0.5;exitY=1;exitDx=0;exitDy=0;fontFamily=Architects Daughter;fontSource=https%3A%2F%2Ffonts.googleapis.com%2Fcss%3Ffamily%3DArchitects%2BDaughter;fontSize=16;endArrow=none;startSize=14;endSize=14;sourcePerimeterSpacing=8;" edge="1" parent="1" source="FUgHKyWx6sdROd2DMv94-3" target="FUgHKyWx6sdROd2DMv94-78">
          <mxGeometry relative="1" as="geometry">
            <mxPoint x="-204" y="220" as="sourcePoint" />
            <mxPoint x="-101.36220472440937" y="299.0000000000002" as="targetPoint" />
          </mxGeometry>
        </mxCell>
        <mxCell id="FUgHKyWx6sdROd2DMv94-80" value="no" style="text;strokeColor=none;fillColor=none;html=1;align=center;verticalAlign=middle;whiteSpace=wrap;rounded=0;sketch=1;hachureGap=4;fontFamily=Architects Daughter;fontSource=https://fonts.googleapis.com/css?family=Architects+Daughter;fontSize=20;" vertex="1" parent="1">
          <mxGeometry x="-23" y="427" width="60" height="30" as="geometry" />
        </mxCell>
        <mxCell id="FUgHKyWx6sdROd2DMv94-81" value="" style="edgeStyle=none;curved=1;rounded=0;sketch=1;hachureGap=4;orthogonalLoop=1;jettySize=auto;html=1;exitX=0.5;exitY=1;exitDx=0;exitDy=0;fontFamily=Architects Daughter;fontSource=https%3A%2F%2Ffonts.googleapis.com%2Fcss%3Ffamily%3DArchitects%2BDaughter;fontSize=16;endArrow=none;startSize=14;endSize=14;sourcePerimeterSpacing=8;" edge="1" parent="1" source="FUgHKyWx6sdROd2DMv94-11" target="FUgHKyWx6sdROd2DMv94-80">
          <mxGeometry relative="1" as="geometry">
            <mxPoint x="-39" y="387" as="sourcePoint" />
            <mxPoint x="42.746987951807114" y="505" as="targetPoint" />
          </mxGeometry>
        </mxCell>
        <mxCell id="FUgHKyWx6sdROd2DMv94-62" value="no" style="text;strokeColor=none;fillColor=none;html=1;align=center;verticalAlign=middle;whiteSpace=wrap;rounded=0;sketch=1;hachureGap=4;fontFamily=Architects Daughter;fontSource=https://fonts.googleapis.com/css?family=Architects+Daughter;fontSize=20;" vertex="1" parent="1">
          <mxGeometry x="-413" y="425" width="60" height="30" as="geometry" />
        </mxCell>
        <mxCell id="FUgHKyWx6sdROd2DMv94-82" value="" style="edgeStyle=none;curved=1;rounded=0;sketch=1;hachureGap=4;orthogonalLoop=1;jettySize=auto;html=1;exitX=0.5;exitY=1;exitDx=0;exitDy=0;fontFamily=Architects Daughter;fontSource=https%3A%2F%2Ffonts.googleapis.com%2Fcss%3Ffamily%3DArchitects%2BDaughter;fontSize=16;endArrow=none;startSize=14;endSize=14;sourcePerimeterSpacing=8;" edge="1" parent="1" source="FUgHKyWx6sdROd2DMv94-17" target="FUgHKyWx6sdROd2DMv94-62">
          <mxGeometry relative="1" as="geometry">
            <mxPoint x="-403" y="387" as="sourcePoint" />
            <mxPoint x="-353.7407407407409" y="501" as="targetPoint" />
          </mxGeometry>
        </mxCell>
        <mxCell id="FUgHKyWx6sdROd2DMv94-83" value="yes" style="text;strokeColor=none;fillColor=none;html=1;align=center;verticalAlign=middle;whiteSpace=wrap;rounded=0;sketch=1;hachureGap=4;fontFamily=Architects Daughter;fontSource=https://fonts.googleapis.com/css?family=Architects+Daughter;fontSize=20;" vertex="1" parent="1">
          <mxGeometry x="-483" y="427" width="60" height="30" as="geometry" />
        </mxCell>
        <mxCell id="FUgHKyWx6sdROd2DMv94-84" value="" style="edgeStyle=none;curved=1;rounded=0;sketch=1;hachureGap=4;orthogonalLoop=1;jettySize=auto;html=1;exitX=0.5;exitY=1;exitDx=0;exitDy=0;fontFamily=Architects Daughter;fontSource=https%3A%2F%2Ffonts.googleapis.com%2Fcss%3Ffamily%3DArchitects%2BDaughter;fontSize=16;endArrow=none;startSize=14;endSize=14;sourcePerimeterSpacing=8;" edge="1" parent="1" source="FUgHKyWx6sdROd2DMv94-17" target="FUgHKyWx6sdROd2DMv94-83">
          <mxGeometry relative="1" as="geometry">
            <mxPoint x="-403" y="387" as="sourcePoint" />
            <mxPoint x="-493.7777777777774" y="501" as="targetPoint" />
          </mxGeometry>
        </mxCell>
        <mxCell id="FUgHKyWx6sdROd2DMv94-88" value="yes" style="text;strokeColor=none;fillColor=none;html=1;align=center;verticalAlign=middle;whiteSpace=wrap;rounded=0;sketch=1;hachureGap=4;fontFamily=Architects Daughter;fontSource=https://fonts.googleapis.com/css?family=Architects+Daughter;fontSize=20;" vertex="1" parent="1">
          <mxGeometry x="-295" y="240" width="60" height="30" as="geometry" />
        </mxCell>
        <mxCell id="FUgHKyWx6sdROd2DMv94-89" value="" style="edgeStyle=none;curved=1;rounded=0;sketch=1;hachureGap=4;orthogonalLoop=1;jettySize=auto;html=1;exitX=0.5;exitY=1;exitDx=0;exitDy=0;fontFamily=Architects Daughter;fontSource=https%3A%2F%2Ffonts.googleapis.com%2Fcss%3Ffamily%3DArchitects%2BDaughter;fontSize=16;endArrow=none;startSize=14;endSize=14;sourcePerimeterSpacing=8;" edge="1" parent="1" source="FUgHKyWx6sdROd2DMv94-3" target="FUgHKyWx6sdROd2DMv94-88">
          <mxGeometry relative="1" as="geometry">
            <mxPoint x="-204" y="220" as="sourcePoint" />
            <mxPoint x="-327.7874015748034" y="299.0000000000002" as="targetPoint" />
          </mxGeometry>
        </mxCell>
        <mxCell id="FUgHKyWx6sdROd2DMv94-85" value="yes" style="text;strokeColor=none;fillColor=none;html=1;align=center;verticalAlign=middle;whiteSpace=wrap;rounded=0;sketch=1;hachureGap=4;fontFamily=Architects Daughter;fontSource=https://fonts.googleapis.com/css?family=Architects+Daughter;fontSize=20;" vertex="1" parent="1">
          <mxGeometry x="-23" y="85" width="60" height="30" as="geometry" />
        </mxCell>
        <mxCell id="FUgHKyWx6sdROd2DMv94-90" value="" style="edgeStyle=none;curved=1;rounded=0;sketch=1;hachureGap=4;orthogonalLoop=1;jettySize=auto;html=1;exitX=0.5;exitY=1;exitDx=0;exitDy=0;entryX=0.5;entryY=0;entryDx=0;entryDy=0;fontFamily=Architects Daughter;fontSource=https%3A%2F%2Ffonts.googleapis.com%2Fcss%3Ffamily%3DArchitects%2BDaughter;fontSize=16;endArrow=none;startSize=14;endSize=14;sourcePerimeterSpacing=8;" edge="1" parent="1" source="FUgHKyWx6sdROd2DMv94-1" target="FUgHKyWx6sdROd2DMv94-85">
          <mxGeometry relative="1" as="geometry">
            <mxPoint x="200" y="82" as="sourcePoint" />
            <mxPoint x="-204" y="140" as="targetPoint" />
          </mxGeometry>
        </mxCell>
        <mxCell id="FUgHKyWx6sdROd2DMv94-86" value="yes" style="text;strokeColor=none;fillColor=none;html=1;align=center;verticalAlign=middle;whiteSpace=wrap;rounded=0;sketch=1;hachureGap=4;fontFamily=Architects Daughter;fontSource=https://fonts.googleapis.com/css?family=Architects+Daughter;fontSize=20;" vertex="1" parent="1">
          <mxGeometry x="-101" y="427" width="60" height="30" as="geometry" />
        </mxCell>
        <mxCell id="FUgHKyWx6sdROd2DMv94-91" value="" style="edgeStyle=none;curved=1;rounded=0;sketch=1;hachureGap=4;orthogonalLoop=1;jettySize=auto;html=1;exitX=0.5;exitY=1;exitDx=0;exitDy=0;fontFamily=Architects Daughter;fontSource=https%3A%2F%2Ffonts.googleapis.com%2Fcss%3Ffamily%3DArchitects%2BDaughter;fontSize=16;endArrow=none;startSize=14;endSize=14;sourcePerimeterSpacing=8;" edge="1" parent="1" source="FUgHKyWx6sdROd2DMv94-11" target="FUgHKyWx6sdROd2DMv94-86">
          <mxGeometry relative="1" as="geometry">
            <mxPoint x="-39" y="387" as="sourcePoint" />
            <mxPoint x="-97.28915662650616" y="505" as="targetPoint" />
          </mxGeometry>
        </mxCell>
        <mxCell id="FUgHKyWx6sdROd2DMv94-87" value="yes" style="text;strokeColor=none;fillColor=none;html=1;align=center;verticalAlign=middle;whiteSpace=wrap;rounded=0;sketch=1;hachureGap=4;fontFamily=Architects Daughter;fontSource=https://fonts.googleapis.com/css?family=Architects+Daughter;fontSize=20;" vertex="1" parent="1">
          <mxGeometry x="260" y="626" width="60" height="30" as="geometry" />
        </mxCell>
        <mxCell id="FUgHKyWx6sdROd2DMv94-94" value="" style="edgeStyle=none;curved=1;rounded=0;sketch=1;hachureGap=4;orthogonalLoop=1;jettySize=auto;html=1;exitX=0.5;exitY=1;exitDx=0;exitDy=0;fontFamily=Architects Daughter;fontSource=https%3A%2F%2Ffonts.googleapis.com%2Fcss%3Ffamily%3DArchitects%2BDaughter;fontSize=16;endArrow=none;startSize=14;endSize=14;sourcePerimeterSpacing=8;" edge="1" parent="1" source="FUgHKyWx6sdROd2DMv94-31" target="FUgHKyWx6sdROd2DMv94-87">
          <mxGeometry relative="1" as="geometry">
            <mxPoint x="320.99999999999955" y="593" as="sourcePoint" />
            <mxPoint x="243.92052980132394" y="696.0000000000002" as="targetPoint" />
          </mxGeometry>
        </mxCell>
        <mxCell id="FUgHKyWx6sdROd2DMv94-95" value="yes" style="text;strokeColor=none;fillColor=none;html=1;align=center;verticalAlign=middle;whiteSpace=wrap;rounded=0;sketch=1;hachureGap=4;fontFamily=Architects Daughter;fontSource=https://fonts.googleapis.com/css?family=Architects+Daughter;fontSize=20;" vertex="1" parent="1">
          <mxGeometry x="583" y="255" width="60" height="30" as="geometry" />
        </mxCell>
        <mxCell id="FUgHKyWx6sdROd2DMv94-96" value="" style="edgeStyle=none;curved=1;rounded=0;sketch=1;hachureGap=4;orthogonalLoop=1;jettySize=auto;html=1;exitX=0.5;exitY=1;exitDx=0;exitDy=0;fontFamily=Architects Daughter;fontSource=https%3A%2F%2Ffonts.googleapis.com%2Fcss%3Ffamily%3DArchitects%2BDaughter;fontSize=16;endArrow=none;startSize=14;endSize=14;sourcePerimeterSpacing=8;" edge="1" parent="1" source="FUgHKyWx6sdROd2DMv94-2" target="FUgHKyWx6sdROd2DMv94-95">
          <mxGeometry relative="1" as="geometry">
            <mxPoint x="689" y="245" as="sourcePoint" />
            <mxPoint x="537.0000000000005" y="309.5999999999999" as="targetPoint" />
          </mxGeometry>
        </mxCell>
        <mxCell id="FUgHKyWx6sdROd2DMv94-97" value="yes" style="text;strokeColor=none;fillColor=none;html=1;align=center;verticalAlign=middle;whiteSpace=wrap;rounded=0;sketch=1;hachureGap=4;fontFamily=Architects Daughter;fontSource=https://fonts.googleapis.com/css?family=Architects+Daughter;fontSize=20;" vertex="1" parent="1">
          <mxGeometry x="378" y="425" width="60" height="30" as="geometry" />
        </mxCell>
        <mxCell id="FUgHKyWx6sdROd2DMv94-98" value="" style="edgeStyle=none;curved=1;rounded=0;sketch=1;hachureGap=4;orthogonalLoop=1;jettySize=auto;html=1;exitX=0.5;exitY=1;exitDx=0;exitDy=0;fontFamily=Architects Daughter;fontSource=https%3A%2F%2Ffonts.googleapis.com%2Fcss%3Ffamily%3DArchitects%2BDaughter;fontSize=16;endArrow=none;startSize=14;endSize=14;sourcePerimeterSpacing=8;" edge="1" parent="1" source="FUgHKyWx6sdROd2DMv94-29" target="FUgHKyWx6sdROd2DMv94-97">
          <mxGeometry relative="1" as="geometry">
            <mxPoint x="449" y="387" as="sourcePoint" />
            <mxPoint x="358.0120481927711" y="505" as="targetPoint" />
          </mxGeometry>
        </mxCell>
        <mxCell id="FUgHKyWx6sdROd2DMv94-99" value="yes" style="text;strokeColor=none;fillColor=none;html=1;align=center;verticalAlign=middle;whiteSpace=wrap;rounded=0;sketch=1;hachureGap=4;fontFamily=Architects Daughter;fontSource=https://fonts.googleapis.com/css?family=Architects+Daughter;fontSize=20;" vertex="1" parent="1">
          <mxGeometry x="606" y="620" width="60" height="30" as="geometry" />
        </mxCell>
        <mxCell id="FUgHKyWx6sdROd2DMv94-100" value="" style="edgeStyle=none;curved=1;rounded=0;sketch=1;hachureGap=4;orthogonalLoop=1;jettySize=auto;html=1;exitX=0.5;exitY=1;exitDx=0;exitDy=0;fontFamily=Architects Daughter;fontSource=https%3A%2F%2Ffonts.googleapis.com%2Fcss%3Ffamily%3DArchitects%2BDaughter;fontSize=16;endArrow=none;startSize=14;endSize=14;sourcePerimeterSpacing=8;" edge="1" parent="1" source="FUgHKyWx6sdROd2DMv94-37" target="FUgHKyWx6sdROd2DMv94-99">
          <mxGeometry relative="1" as="geometry">
            <mxPoint x="677.0000000000005" y="593" as="sourcePoint" />
            <mxPoint x="621.0662251655631" y="696.0000000000002" as="targetPoint" />
          </mxGeometry>
        </mxCell>
        <mxCell id="FUgHKyWx6sdROd2DMv94-49" value="yes" style="text;strokeColor=none;fillColor=none;html=1;align=center;verticalAlign=middle;whiteSpace=wrap;rounded=0;sketch=1;hachureGap=4;fontFamily=Architects Daughter;fontSource=https%3A%2F%2Ffonts.googleapis.com%2Fcss%3Ffamily%3DArchitects%2BDaughter;fontSize=20;" vertex="1" parent="1">
          <mxGeometry x="898" y="425" width="60" height="30" as="geometry" />
        </mxCell>
        <mxCell id="FUgHKyWx6sdROd2DMv94-102" value="" style="edgeStyle=none;curved=1;rounded=0;sketch=1;hachureGap=4;orthogonalLoop=1;jettySize=auto;html=1;exitX=0.5;exitY=1;exitDx=0;exitDy=0;fontFamily=Architects Daughter;fontSource=https%3A%2F%2Ffonts.googleapis.com%2Fcss%3Ffamily%3DArchitects%2BDaughter;fontSize=16;endArrow=none;startSize=14;endSize=14;sourcePerimeterSpacing=8;" edge="1" parent="1" source="FUgHKyWx6sdROd2DMv94-23" target="FUgHKyWx6sdROd2DMv94-49">
          <mxGeometry relative="1" as="geometry">
            <mxPoint x="957.0000000000005" y="377" as="sourcePoint" />
            <mxPoint x="885" y="505" as="targetPoint" />
          </mxGeometry>
        </mxCell>
      </root>
    </mxGraphModel>
  </diagram>
</mxfile>
